<?xml version="1.0" encoding="utf-8"?>
<!-- Generator: Adobe Illustrator 16.0.0, SVG Export Plug-In . SVG Version: 6.00 Build 0)  -->
<!DOCTYPE svg PUBLIC "-//W3C//DTD SVG 1.1//EN" "http://www.w3.org/Graphics/SVG/1.1/DTD/svg11.dtd">
<svg version="1.1" id="Layer_1" xmlns="http://www.w3.org/2000/svg" xmlns:xlink="http://www.w3.org/1999/xlink" x="0px" y="0px"
	 width="58.047px" height="58.046px" viewBox="0 0 58.047 58.046" enable-background="new 0 0 58.047 58.046" xml:space="preserve">
<g>
	<g>
		<path fill="#FFFFFF" d="M28.962,39.972c-0.397,0-0.779-0.158-1.061-0.439L14.69,26.32c-0.586-0.586-0.586-1.535,0-2.121
			s1.535-0.586,2.121,0l12.15,12.152l12.15-12.152c0.586-0.586,1.535-0.586,2.121,0s0.586,1.535,0,2.121L30.022,39.533
			C29.741,39.814,29.359,39.972,28.962,39.972z"/>
	</g>
	<g>
		<g>
			<path fill="#FFFFFF" d="M29.023,58.046C13.02,58.046,0,45.027,0,29.023S13.02,0,29.023,0c16.004,0,29.024,13.02,29.024,29.023
				S45.028,58.046,29.023,58.046z M29.023,2.951c-14.375,0-26.072,11.696-26.072,26.072c0,14.377,11.697,26.072,26.072,26.072
				c14.377,0,26.073-11.695,26.073-26.072C55.096,14.647,43.401,2.951,29.023,2.951z"/>
		</g>
	</g>
</g>
</svg>
