<?xml version="1.0" encoding="utf-8"?>
<!-- Generator: Adobe Illustrator 16.0.0, SVG Export Plug-In . SVG Version: 6.00 Build 0)  -->
<!DOCTYPE svg PUBLIC "-//W3C//DTD SVG 1.1//EN" "http://www.w3.org/Graphics/SVG/1.1/DTD/svg11.dtd">
<svg version="1.1" id="Layer_1" xmlns="http://www.w3.org/2000/svg" xmlns:xlink="http://www.w3.org/1999/xlink" x="0px" y="0px"
	 width="58.047px" height="58.046px" viewBox="0 0 58.047 58.046" enable-background="new 0 0 58.047 58.046" xml:space="preserve">
<g>
	<g>
		<path fill="#FFFFFF" d="M29.053,58.105C13.032,58.105,0,45.073,0,29.053C0,13.033,13.032,0,29.053,0
			c16.018,0,29.051,13.033,29.051,29.053C58.104,45.073,45.071,58.105,29.053,58.105z M29.053,2.955
			c-14.39,0-26.1,11.708-26.1,26.099s11.71,26.099,26.1,26.099c14.391,0,26.096-11.708,26.096-26.099S43.444,2.955,29.053,2.955z"/>
	</g>
	<g>
		
			<rect x="17.013" y="26.977" transform="matrix(-0.7071 -0.7071 0.7071 -0.7071 29.0747 70.0881)" fill="#FFFFFF" width="24.079" height="4.091"/>
	</g>
	<g>
		
			<rect x="17.013" y="26.977" transform="matrix(0.7071 -0.7071 0.7071 0.7071 -12.0129 29.0426)" fill="#FFFFFF" width="24.079" height="4.091"/>
	</g>
</g>
</svg>
