<?xml version="1.0" encoding="utf-8"?>
<!-- Generator: Adobe Illustrator 19.1.0, SVG Export Plug-In . SVG Version: 6.00 Build 0)  -->
<svg version="1.1" id="Layer_1" xmlns="http://www.w3.org/2000/svg" xmlns:xlink="http://www.w3.org/1999/xlink" x="0px" y="0px"
	 viewBox="-283 406.9 28 28" style="enable-background:new -283 406.9 28 28;" xml:space="preserve">
<style type="text/css">
	.st0{opacity:0.8;}
	.st1{fill:#333333;}
</style>
<g class="st0">
	<g>
		<polygon class="st1" points="-259.8,422.5 -259.8,432.1 -280.4,432.1 -280.4,411.5 -270.7,411.5 -270.7,409 -280.4,409 -283,409 
			-283,411.5 -283,432.1 -283,434.7 -280.4,434.7 -259.8,434.7 -257.3,434.7 -257.3,432.1 -257.3,422.5 		"/>
		<path class="st1" d="M-269.3,422.7c-0.3,0-0.7-0.1-0.9-0.4c-0.5-0.5-0.5-1.3,0-1.8l12.8-12.8c0.5-0.5,1.3-0.5,1.8,0s0.5,1.3,0,1.8
			l-12.7,12.8C-268.6,422.6-268.9,422.7-269.3,422.7z"/>
		<path class="st1" d="M-256.3,418.8c-0.7,0-1.3-0.6-1.3-1.3v-7.8h-7.8c-0.7,0-1.3-0.6-1.3-1.3s0.6-1.3,1.3-1.3l0,0h9.1
			c0.7,0,1.3,0.6,1.3,1.3v9.1C-255,418.2-255.6,418.8-256.3,418.8z"/>
	</g>
</g>
</svg>
