<?xml version="1.0" encoding="utf-8"?>
<!-- Generator: Adobe Illustrator 19.1.0, SVG Export Plug-In . SVG Version: 6.00 Build 0)  -->
<svg version="1.1" xmlns="http://www.w3.org/2000/svg" xmlns:xlink="http://www.w3.org/1999/xlink" x="0px" y="0px"
	 viewBox="0 0 160 32" style="enable-background:new 0 0 160 32;" xml:space="preserve">
<style type="text/css">
	.st0{fill-rule:evenodd;clip-rule:evenodd;fill:#00DC73;}
	.st1{fill:#00DC73;}
</style>
<g id="Layer_1">
	<g>
		<g>
			<g>
				<g>
					<path class="st0" d="M19.3,12.8h-2.6v-1.7c0-0.6,0.4-0.8,0.7-0.8c0.3,0,1.9,0,1.9,0V7.4l-2.6,0c-2.8,0-3.5,2.1-3.5,3.5v1.9
						h-1.6v2.9h1.6c0,3.8,0,8.3,0,8.3h3.5c0,0,0-4.6,0-8.3H19L19.3,12.8z"/>
				</g>
			</g>
		</g>
	</g>
	<g>
		<g>
			<g>
				<g>
					<path class="st1" d="M46.5,22.2c-3.1,0.3-5.8-1.1-6-3.1c-0.2-2,2.1-3.9,5.2-4.2c3.1-0.3,5.8,1.1,6,3.1
						C52,20,49.6,21.9,46.5,22.2 M52.7,15.4c-0.3-0.1-0.4-0.1-0.3-0.5c0.3-0.8,0.3-1.4,0-1.9c-0.6-0.9-2.3-0.8-4.2,0
						c0,0-0.6,0.3-0.4-0.2c0.3-0.9,0.2-1.7-0.2-2.2c-1-1-3.8,0-6.1,2.4c-1.8,1.8-2.8,3.6-2.8,5.3c0,3.1,4,5,7.9,5
						c5.1,0,8.5-3,8.5-5.3C55,16.6,53.8,15.8,52.7,15.4"/>
					<path class="st1" d="M56.1,9.8c-1.2-1.4-3-1.9-4.7-1.5h0c-0.4,0.1-0.6,0.5-0.6,0.9c0.1,0.4,0.5,0.6,0.8,0.6
						c1.2-0.3,2.5,0.1,3.4,1.1c0.9,1,1.1,2.3,0.7,3.4v0c-0.1,0.4,0.1,0.8,0.5,0.9c0.4,0.1,0.8-0.1,0.9-0.5v0
						C57.6,13,57.3,11.1,56.1,9.8"/>
					<path class="st1" d="M54.2,11.5c-0.6-0.7-1.5-0.9-2.3-0.7c-0.3,0.1-0.5,0.4-0.5,0.7c0.1,0.3,0.4,0.5,0.7,0.5l0,0
						c0.4-0.1,0.8,0,1.1,0.4c0.3,0.3,0.4,0.8,0.2,1.2l0,0c-0.1,0.3,0.1,0.7,0.4,0.8c0.3,0.1,0.7-0.1,0.8-0.4
						C55,13.1,54.8,12.1,54.2,11.5"/>
					<path class="st1" d="M46.7,18.5c-0.1,0.2-0.3,0.3-0.5,0.2c-0.2-0.1-0.2-0.3-0.1-0.5c0.1-0.2,0.3-0.3,0.5-0.2
						C46.7,18.1,46.8,18.3,46.7,18.5 M45.7,19.8c-0.3,0.5-0.9,0.7-1.4,0.5c-0.5-0.2-0.6-0.8-0.3-1.2c0.3-0.5,0.9-0.7,1.4-0.5
						C45.8,18.8,46,19.3,45.7,19.8 M46.8,16.4c-1.5-0.4-3.1,0.4-3.8,1.7c-0.7,1.3,0,2.8,1.5,3.3c1.5,0.5,3.4-0.3,4-1.7
						C49.1,18.2,48.3,16.8,46.8,16.4"/>
				</g>
			</g>
		</g>
	</g>
	<g>
		<g>
			<path class="st1" d="M80,7.2c-4.7,0-8.5,3.8-8.5,8.5c0,4.7,3.8,8.5,8.5,8.5c4.7,0,8.5-3.8,8.5-8.5C88.5,11,84.7,7.2,80,7.2z
				 M72.7,15.7c0-3.6,2.6-6.6,6-7.2V13c0,3.3-1.7,6.1-4.2,7.5C73.4,19.3,72.7,17.6,72.7,15.7z M76.8,22.3c1.6-1.1,2.8-2.7,3.2-4.5
				c0.4,1.8,1.7,3.4,3.2,4.5c-1,0.5-2.1,0.8-3.2,0.8C78.9,23,77.8,22.8,76.8,22.3z M85.5,20.6c-2.5-1.4-4.2-4.3-4.2-7.6V8.5
				c3.4,0.6,6,3.6,6,7.2C87.3,17.6,86.6,19.3,85.5,20.6z"/>
		</g>
	</g>
	<g>
		<g>
			<g>
				<g>
					<g>
						<path class="st0" d="M112.5,7.4c-4.5,0-8.1,3.6-8.1,8.1c0,1.5,0.4,3,1.2,4.2l-1.5,4.3l4.5-1.4c1.2,0.6,2.5,1,3.9,1
							c4.5,0,8.1-3.6,8.1-8.1C120.5,11.1,116.9,7.4,112.5,7.4z M112.5,22.2c-1.4,0-2.6-0.4-3.7-1.1l-2.6,0.8l0.8-2.5
							c-0.8-1.1-1.3-2.5-1.3-3.9c0-3.7,3-6.7,6.7-6.7c3.7,0,6.7,3,6.7,6.7C119.2,19.2,116.2,22.2,112.5,22.2z M116.2,17.4
							c-0.2-0.1-1.2-0.6-1.4-0.7c-0.2-0.1-0.3-0.1-0.5,0.1c-0.1,0.2-0.6,0.7-0.7,0.8c-0.1,0.1-0.2,0.1-0.4,0
							c-0.2-0.1-0.9-0.4-1.6-1.1c-0.6-0.6-1-1.3-1.1-1.5c-0.1-0.2,0-0.3,0.1-0.4c0.1-0.1,0.2-0.2,0.3-0.4c0.1-0.1,0.1-0.2,0.2-0.3
							c0.1-0.1,0-0.3,0-0.4c0-0.1-0.4-1.1-0.6-1.6c-0.2-0.4-0.3-0.4-0.5-0.4c-0.1,0-0.3,0-0.4,0c-0.1,0-0.4,0-0.6,0.2
							c-0.2,0.2-0.7,0.7-0.8,1.7c0,1,0.7,2,0.8,2.2c0.1,0.1,1.3,2.3,3.4,3.2c2.1,0.9,2.1,0.6,2.5,0.6c0.4,0,1.2-0.5,1.4-0.9
							c0.2-0.5,0.2-0.9,0.2-1C116.6,17.5,116.4,17.5,116.2,17.4z"/>
					</g>
				</g>
			</g>
		</g>
	</g>
	<g>
		<g>
			<g>
				<g>
					<g>
						<g>
							<path class="st1" d="M153.2,17.8c0-2.5-2.5-4.6-5.4-4.6c-3,0-5.4,2.1-5.4,4.6c0,2.5,2.4,4.6,5.4,4.6c0.6,0,1.3-0.2,1.9-0.3
								l1.7,1l-0.5-1.6C152.2,20.5,153.2,19.2,153.2,17.8z M146,17c-0.3,0-0.6-0.3-0.6-0.6c0-0.3,0.3-0.6,0.6-0.6
								c0.5,0,0.8,0.3,0.8,0.6C146.8,16.7,146.5,17,146,17z M149.5,17c-0.3,0-0.6-0.3-0.6-0.6c0-0.3,0.3-0.6,0.6-0.6
								c0.5,0,0.8,0.3,0.8,0.6C150.3,16.7,150,17,149.5,17z"/>
						</g>
					</g>
					<g>
						<g>
							<path class="st1" d="M141.6,8.4c-3.5,0-6.3,2.4-6.3,5.4c0,1.7,1,3.2,2.5,4.3l-0.6,1.9l2.2-1.1c0.8,0.2,1.4,0.3,2.2,0.3
								c0.2,0,0.4,0,0.6,0c-0.1-0.4-0.2-0.9-0.2-1.3c0-2.8,2.4-5,5.4-5c0.2,0,0.4,0,0.6,0C147.4,10.3,144.7,8.4,141.6,8.4z
								 M139.5,12.7c-0.5,0-1-0.3-1-0.8c0-0.5,0.5-0.8,1-0.8c0.5,0,0.8,0.3,0.8,0.8C140.3,12.4,140,12.7,139.5,12.7z M144,12.7
								c-0.5,0-1-0.3-1-0.8c0-0.5,0.5-0.8,1-0.8c0.5,0,0.8,0.3,0.8,0.8C144.8,12.4,144.5,12.7,144,12.7z"/>
						</g>
					</g>
				</g>
			</g>
		</g>
	</g>
</g>
<g id="content">
</g>
</svg>
