<?xml version="1.0" encoding="utf-8"?>
<!-- Generator: Adobe Illustrator 19.1.0, SVG Export Plug-In . SVG Version: 6.00 Build 0)  -->
<svg version="1.1" id="Layer_1" xmlns="http://www.w3.org/2000/svg" xmlns:xlink="http://www.w3.org/1999/xlink" x="0px" y="0px"
	 viewBox="0 0 28 28" style="enable-background:new 0 0 28 28;" xml:space="preserve">
<style type="text/css">
	.st0{fill:#FFFFFF;}
</style>
<g>
	<g>
		<polygon class="st0" points="23.2,15.8 23.2,25.4 2.6,25.4 2.6,4.8 12.3,4.8 12.3,2.3 2.6,2.3 0,2.3 0,4.8 0,25.4 0,28 2.6,28 
			23.2,28 25.7,28 25.7,25.4 25.7,15.8 		"/>
		<path class="st0" d="M13.7,16c-0.3,0-0.7-0.1-0.9-0.4c-0.5-0.5-0.5-1.3,0-1.8L25.6,1c0.5-0.5,1.3-0.5,1.8,0c0.5,0.5,0.5,1.3,0,1.8
			L14.7,15.6C14.4,15.9,14.1,16,13.7,16z"/>
		<path class="st0" d="M26.7,12.1c-0.7,0-1.3-0.6-1.3-1.3V3l-7.8,0c-0.7,0-1.3-0.6-1.3-1.3s0.6-1.3,1.3-1.3l0,0l9.1,0
			C27.4,0.4,28,1,28,1.7v9.1C28,11.5,27.4,12.1,26.7,12.1z"/>
	</g>
</g>
</svg>
