<?xml version="1.0" encoding="utf-8"?>
<!-- Generator: Adobe Illustrator 16.0.0, SVG Export Plug-In . SVG Version: 6.00 Build 0)  -->
<!DOCTYPE svg PUBLIC "-//W3C//DTD SVG 1.1//EN" "http://www.w3.org/Graphics/SVG/1.1/DTD/svg11.dtd">
<svg version="1.1" id="Layer_1" xmlns="http://www.w3.org/2000/svg" xmlns:xlink="http://www.w3.org/1999/xlink" x="0px" y="0px"
	 width="278.219px" height="67.553px" viewBox="0 0 278.219 67.553" enable-background="new 0 0 278.219 67.553"
	 xml:space="preserve">
<g>
	<g>
		<path fill-rule="evenodd" clip-rule="evenodd" fill="#FFFFFF" d="M44.702,42.161c-4.955-0.55-9.47-0.11-11.893,0.22l0,0
			c-1.43,0.331-2.202,0.551-2.202,0.551l-0.11-27.086c1.321-0.77,2.864-0.99,2.864-0.99v24.662c1.981-0.22,4.954-0.549,8.476-0.33
			V9.131c1.433-0.11,2.864,0.331,2.864,0.331V42.161L44.702,42.161z"/>
		<g>
			<g>
				<path fill="#FFFFFF" d="M162.503,51.518l-1.432-4.623l-1.652-5.175h-2.201c0.331,0.221,0.331,0.552,0.331,0.881l-1.322,4.294
					l-1.43,4.733c-0.221,0.442-0.442,0.773-0.771,0.991h2.312c-0.33-0.218-0.439-0.328-0.33-0.549l0.77-2.973h3.523l0.88,2.862
					c0,0.332,0,0.442-0.33,0.66h2.422C162.943,52.401,162.724,51.959,162.503,51.518z M157.218,47.886l0.221-0.991l1.101-3.853
					l1.101,3.853l0.329,0.991H157.218z"/>
				<path fill="#FFFFFF" d="M188.047,46.895c-1.322-0.771-2.753-1.211-2.753-2.533c0-1.209,0.771-1.65,1.542-1.65
					c0.222,0,0.439,0,0.439,0c0.663,0,1.872,0.331,2.314,0.88l-0.111-1.65c-0.549-0.221-1.65-0.441-2.203-0.331
					c-0.107,0-0.217-0.111-0.328-0.111c-1.763,0-3.083,1.102-3.083,2.973c0,1.211,0.661,1.873,1.32,2.422
					c1.542,0.991,3.635,1.43,3.635,3.083c0,1.212-0.88,1.65-1.761,1.761l-0.773-0.111c-0.771,0.111-1.76-0.218-2.421-0.99
					l0.44,1.871c0.551,0.221,1.763,0.442,2.533,0.442c1.651,0,3.304-0.771,3.304-3.083
					C190.139,48.325,189.146,47.555,188.047,46.895z"/>
				<path fill="#FFFFFF" d="M151.161,46.895h0.222c1.211-0.331,1.542-1.211,1.542-2.533c0-0.219,0-0.88-0.441-1.43
					c-0.331-0.66-0.88-1.212-2.312-1.212h-3.744c0.332,0.221,0.332,0.771,0.332,0.992v4.184v4.955c0,0.221,0,0.659-0.332,0.77h3.744
					c1.211,0,3.083-0.218,3.083-2.973C153.254,48.106,152.594,47.226,151.161,46.895z M148.079,43.042h1.872
					c1.21,0,1.652,0.66,1.652,1.54c0,1.102-0.55,1.764-1.543,1.764h-1.981V43.042z M149.951,51.518h-1.872v-3.963h1.432
					c1.431,0,2.422,0.331,2.422,2.091C151.934,50.417,151.383,51.518,149.951,51.518z"/>
				<path fill="#FFFFFF" d="M113.398,51.628l-3.193-4.733l-0.109-0.221l3.853-4.955h-2.202c0.551,0.332-0.219,1.212-0.882,1.982
					l-2.201,2.863v-3.963c0-0.221,0.109-0.66,0.33-0.881h-1.981v0.11c0.33,0.111,0.33,0.771,0.33,0.881v4.184v4.733
					c0,0,0,0.773-0.33,0.991h1.981c-0.33-0.11-0.33-0.991-0.33-0.991v-4.623l3.414,5.065c0.22,0.549,0.44,0.549,1.431,0.549h0.991
					C114.057,52.291,113.729,52.07,113.398,51.628z"/>
				<path fill="#FFFFFF" d="M249.484,51.41l-1.984-3.745c0.441-0.22,0.882-0.439,1.211-0.771c0.551-0.659,0.881-1.433,0.881-2.203
					c0-1.319-0.991-2.862-2.753-2.862h-3.632c0.329,0.111,0.329,0.881,0.329,0.881v4.184v4.844c0,0,0,0.662-0.329,0.88h1.982
					c-0.331-0.11-0.331-0.88-0.331-0.88v-4.074h1.102l2.202,4.405c0.22,0.659,0.771,0.659,1.322,0.659l1.101-0.11
					C250.034,52.291,249.812,52.07,249.484,51.41z M244.858,43.042h1.653c1.209-0.11,1.76,0.881,1.76,1.65
					c0,0.88-0.551,1.76-1.76,1.76h-1.653V43.042z"/>
				<path fill="#FFFFFF" d="M240.235,51.518c-0.111,0-0.222,0-0.332,0h-2.532v-3.853h3.302c0.11,0.11,0.332,0.11,0.442,0.332v-1.102
					v-0.442c-0.11,0-0.332,0-0.442,0h-3.302v-3.411h3.522c0.111,0,0.332,0.11,0.551,0.332v-1.654c-0.109,0-0.22,0-0.22,0.11
					c-0.11,0-0.221,0-0.332,0h-5.175c0.221,0.111,0.331,0.55,0.331,0.771v4.294v4.955c0,0.221-0.11,0.659-0.331,0.77h5.617
					l0.439-1.981C241.336,51.189,240.783,51.41,240.235,51.518z"/>
				<path fill="#FFFFFF" d="M255.429,46.895c-1.211-0.771-2.644-1.211-2.644-2.533c0-1.099,0.88-1.541,1.654-1.541
					c0.11,0,0.438-0.109,0.438,0c0.552,0,1.761,0.221,2.202,0.771v-1.65c-0.55-0.221-1.65-0.331-2.202-0.331
					c-0.111,0-0.221,0-0.329,0c-1.764,0-3.083,0.991-3.083,2.971c0,1.102,0.549,1.764,1.209,2.313
					c1.433,1.102,3.635,1.43,3.635,3.083c0,1.212-0.773,1.65-1.761,1.761h-0.663c-0.88,0-1.761-0.329-2.42-1.101l0.329,1.871
					c0.662,0.332,2.091,0.442,2.754,0.442c1.651-0.11,3.19-0.88,3.19-3.083C257.739,48.325,256.638,47.555,255.429,46.895z"/>
				<path fill="#FFFFFF" d="M129.583,42.601v4.294v4.074l-1.872-4.074l-2.204-5.175h-2.422c0.331,0.332,0.442,0.771,0.551,1.212
					v3.963v4.955c-0.109,0.221-0.109,0.659-0.44,0.77h1.982c-0.33-0.11-0.33-0.549-0.33-0.77v-4.955v-3.743
					c0,0,0.66,1.65,1.541,3.743c0.55,1.212,1.212,2.642,1.762,3.964c0.99,2.092,2.643,1.982,2.643,1.982v-5.946v-4.294
					c0-0.221,0-0.66,0.329-0.881h-1.871C129.473,41.94,129.583,42.379,129.583,42.601z"/>
				<path fill="#FFFFFF" d="M263.354,41.719c-0.11,0-0.33,0-0.44-0.109l-0.33,1.871c0.33-0.439,0.77-0.439,1.21-0.439h1.654v3.853
					v4.844c0,0,0,0.662-0.333,0.88h1.981c-0.22-0.11-0.331-0.549-0.331-0.77v-4.955v-3.853h1.875c0.329,0,0.659,0,0.769,0.439
					l0.111-0.439V42.82l0.219-1.101c-0.111,0-0.219,0-0.33,0H263.354z"/>
				<path fill="#FFFFFF" d="M118.243,41.499c-2.314,0-3.304,1.432-3.304,3.634v1.761v1.761c0,3.083,1.101,4.295,3.304,4.295
					c2.201,0,3.303-1.212,3.303-4.295v-1.761v-1.761C121.546,42.931,120.444,41.499,118.243,41.499z M120.113,48.766
					c0,2.973-1.54,2.973-1.871,2.973c-0.551,0-1.981,0-1.981-2.973v-1.872v-1.871c0-2.203,1.54-2.312,1.981-2.312
					c0.331,0,1.871,0.109,1.871,2.312v1.871V48.766z"/>
				<path fill="#FFFFFF" d="M260.822,42.601c0-0.221,0-0.66,0.332-0.881h-2.093c0.332,0.11,0.332,0.552,0.441,0.881v4.294v5.064
					c-0.109,0.221-0.109,0.55-0.441,0.66h2.093c-0.332-0.11-0.332-0.549-0.332-0.77v-4.955V42.601z"/>
				<path fill="#FFFFFF" d="M276.127,41.719c0.44,0.332,0.331,0.881,0.221,1.322l-1.543,3.853l-0.11,0.221v-0.221l-1.541-3.963
					l-0.331-0.77c-0.11-0.332-0.66-0.442-0.99-0.442h-0.991c0.551,0.442,0.662,0.771,0.88,1.433l1.542,3.743l0.77,1.652v3.303
					c0,0.221-0.11,0.659-0.331,0.77h1.981c-0.218-0.11-0.328-0.549-0.328-0.77v-3.303l0.659-1.652l1.542-3.743l0.661-1.433H276.127z
					"/>
				<path fill="#FFFFFF" d="M73.651,42.711c0,0,0-0.771,0.33-0.992H71.89c0.441,0.221,0.331,0.992,0.331,0.992v3.741h-3.634v-3.741
					c0,0,0-0.771,0.331-0.992h-1.982c0.332,0.221,0.332,0.992,0.332,0.992v4.184v4.844c0,0,0,0.662-0.332,0.88h1.982
					c-0.331-0.11-0.331-0.88-0.331-0.88v-4.074h3.634v4.074c0,0,0.11,0.662-0.331,0.88h2.092c-0.33-0.11-0.33-0.88-0.33-0.88v-4.844
					V42.711z"/>
				<path fill="#FFFFFF" d="M79.046,41.499c-2.202,0-3.304,1.432-3.304,3.634v1.761v1.761c0,3.083,1.102,4.295,3.304,4.295
					c2.203,0,3.305-1.212,3.305-4.295v-1.761v-1.761C82.351,42.931,81.249,41.499,79.046,41.499z M80.917,48.766
					c0,2.423-0.66,2.973-1.871,2.973c-1.321,0-1.981-0.549-1.981-2.973v-1.872v-1.871c0-2.203,1.541-2.312,1.981-2.312
					c0.441,0,1.871,0.109,1.871,2.312v1.871V48.766z"/>
				<path fill="#FFFFFF" d="M90.388,42.601v4.294v4.074l-1.873-4.074l-2.2-5.175H83.78c0.442,0.332,0.552,0.771,0.552,1.212v3.963
					v4.955c0,0.221,0,0.659-0.332,0.77h1.872c-0.22-0.11-0.33-0.549-0.33-0.77v-4.955v-3.743c0,0,0.661,1.65,1.652,3.743
					c0.55,1.212,1.211,2.532,1.761,3.964c0.991,2.092,2.643,1.982,2.643,1.982v-5.946v-4.294c0-0.221,0-0.66,0.331-0.881h-1.872
					C90.276,41.94,90.388,42.379,90.388,42.601z"/>
				<path fill="#FFFFFF" d="M191.899,41.719c-0.11,0-0.22,0-0.44,0l-0.33,1.762c0.33-0.439,0.66-0.439,1.103-0.439h1.761v3.853
					v4.844c0,0,0,0.662-0.332,0.88h1.982c-0.222-0.11-0.332-0.549-0.332-0.77v-4.955v-3.853h2.092c0.22,0,0.441,0,0.552,0.439
					l0.329-1.762c-0.108,0-0.329,0-0.439,0H191.899z"/>
				<path fill="#FFFFFF" d="M98.533,46.895c0.331,0.221,0.331,0.88,0.331,0.88v3.524c-0.331,0.218-0.99,0.439-1.871,0.439
					c-1.321,0-1.983-0.549-1.983-2.973v-1.872v-1.871c0-2.203,1.542-2.312,1.983-2.312c0.881-0.11,2.201,0.22,2.643,0.99V41.94
					c-0.552-0.221-1.542-0.441-2.643-0.441c-2.313,0-3.303,1.432-3.303,3.634v1.761v1.761c0,3.083,0.99,4.295,3.303,4.295
					c1.321,0,2.313-0.332,3.193-0.88v-5.176v-0.11h-1.653V46.895z"/>
				<path fill="#FFFFFF" d="M167.899,41.719h-3.635c0.441,0.221,0.441,0.881,0.441,1.433v3.743v4.955c0,0.221,0,0.659-0.331,0.77
					h2.092c-0.33-0.11-0.33-0.88-0.33-0.88v-3.853h1.762c0.66,0,1.65-0.221,2.311-0.991c0.33-0.442,0.551-1.101,0.551-1.981
					C170.761,42.271,169.329,41.719,167.899,41.719z M166.137,43.042h1.762c0.328,0,1.54,0.11,1.54,1.761
					c0,1.762-1.322,1.872-1.872,1.872h-1.431V43.042z"/>
				<path fill="#FFFFFF" d="M172.522,41.719c-0.111,0-0.221,0-0.44,0l-0.331,1.762c0.331-0.439,0.771-0.439,1.213-0.439h1.65v3.853
					v4.844c0,0.111,0,0.77-0.331,0.88h1.98c-0.328-0.11-0.328-0.66-0.328-0.88v-4.844v-3.853h1.651c0.442,0,0.771-0.11,0.992,0.439
					l0.331-1.762c-0.111,0-0.111,0-0.221,0H172.522z"/>
				<path fill="#FFFFFF" d="M181.991,42.601c0-0.221,0.112-0.66,0.329-0.881h-1.981c0.331,0.221,0.331,0.992,0.331,0.992v4.184
					v4.844c0,0,0,0.662-0.331,0.88h1.981c-0.217-0.11-0.329-0.549-0.329-0.77v-4.955V42.601z"/>
				<path fill="#FFFFFF" d="M210.067,42.601v4.294v1.872c0,2.423-0.771,2.973-1.982,2.973c-1.322,0-1.981-0.549-1.981-2.973v-1.872
					v-4.294c0-0.221,0.108-0.66,0.329-0.881h-1.981v0.11c0.331,0.111,0.331,0.881,0.331,0.881v4.184v1.761
					c0,3.083,1.102,4.295,3.304,4.295c2.203,0,3.301-1.212,3.301-4.295v-1.761v-4.184c0,0,0-0.771,0.331-0.992h-1.981
					C209.957,41.83,209.957,42.379,210.067,42.601z"/>
				<path fill="#FFFFFF" d="M157.548,42.601c-0.11,0.22-0.11,0.331-0.221,0.551L157.548,42.601z"/>
				<path fill="#FFFFFF" d="M137.731,46.895c0.33,0.221,0.33,0.88,0.33,0.88v3.524c-0.33,0.218-0.991,0.439-1.873,0.439
					c-1.32,0-1.981-0.549-1.981-2.973v-1.872v-1.761c0-2.313,1.543-2.422,1.981-2.422c0.882-0.11,2.203,0.22,2.644,0.99V41.94
					c-0.551-0.221-1.542-0.441-2.644-0.331c-2.311,0-3.302,1.321-3.302,3.523v1.761v1.761c0,3.083,0.992,4.295,3.302,4.295
					c1.323,0,2.313-0.332,3.195-0.88v-5.176v-0.11h-1.651V46.895z"/>
				<path fill="#FFFFFF" d="M219.754,42.711v4.184v4.074l-1.761-4.074l-2.312-5.065l-2.42-0.11c0.438,0.332,0.549,0.771,0.549,1.322
					v3.853v4.955c0,0.221-0.111,0.659-0.331,0.77h1.871c-0.218-0.11-0.328-0.549-0.328-0.77v-4.955v-3.632
					c0,0,0.66,1.54,1.541,3.632c0.55,1.212,1.21,2.642,1.871,3.964c0.883,2.092,2.533,2.092,2.533,2.092v-6.056v-4.294
					c0-0.221,0.11-0.66,0.331-0.881h-1.874C219.754,41.94,219.754,42.49,219.754,42.711z"/>
				<path fill="#FFFFFF" d="M232.857,42.161l-1.211,4.733l-1.102,4.405l-1.101-4.405l-1.32-5.175h-1.653
					c0.221,0.332,0.332,0.66,0.442,0.992l1.211,4.184l0.881,3.303c0.55,1.982,1.211,2.421,2.202,2.753l0.77-2.753l0.881-3.303
					l1.543-5.175h-1.654C232.857,41.83,232.857,41.94,232.857,42.161z"/>
				<path fill="#FFFFFF" d="M224.82,42.711c0-0.221,0-0.771,0.33-0.992h-2.092c0.332,0.11,0.332,0.552,0.44,0.881v4.294v5.064
					c-0.108,0.221-0.108,0.55-0.44,0.66h2.092c-0.33-0.11-0.33-0.549-0.33-0.77v-4.955V42.711z"/>
			</g>
			<g>
				<path fill="#FFFFFF" d="M215.792,26.967c-0.221-0.109-0.332,0-0.332,0l-1.209,0.991h-4.294v-0.662
					c1.321-0.329,3.853-1.209,3.853-1.209s-0.111-0.11-0.331-0.332c-0.549-0.331-1.32-0.99-1.541-1.212c0,0-0.221,0.332-0.66,0.771
					h-7.597v0.441v0.332h6.715l-0.881,0.991h-1.54v0.88h-7.157v0.88h7.157v1.651c-0.221,0.552-1.102,0.331-1.543,0.442
					c-0.329,0-0.771-0.111-1.209-0.111c0,0.111,0,0.111,0,0.222c0.771,0.218,1.541,0.218,2.093,0.77
					c0.217,0.332,0.217,0.77,0.217,1.102c0.663,0,1.322-0.111,1.872-0.333c0.332-0.22,0.552-0.22,0.552-0.99v-2.752h7.706
					c0.221,0,0-0.331,0-0.331S216.123,27.077,215.792,26.967z"/>
				<path fill="#FFFFFF" d="M202.14,25.755c0-0.221,0.219-0.77,0.111-1.539h13.102c-0.221,0.438-0.441,0.989-0.773,1.539
					c-0.11,0.221-0.22,0.439-0.329,0.771c-0.109,0.11,0.549-0.222,1.32-0.771c0.992-0.66,2.202-1.65,2.202-1.65
					s-1.321-1.102-1.65-1.322c0,0-0.11,0.22-0.331,0.659h-0.11V18.16v-1.653l-1.872-0.22v0.88h-2.532v0.552h2.532v0.442v1.099
					h-2.532v0.662h2.532v1.54h-2.532v0.663h2.532v1.319h-9.688v-1.319h2.861c0.221,0,0.111-0.221,0.111-0.221
					s-0.991-0.771-1.101-0.88c-0.222-0.111-0.222,0-0.222,0l-0.549,0.438h-1.101v-1.54h0.99h0.881h0.99
					c0.221,0,0.111-0.221,0.111-0.221s-0.991-0.77-1.101-0.881c-0.222-0.109-0.222,0-0.222,0l-0.659,0.44h-0.99V18.16v-0.221
					c0.77-0.11,2.092-0.221,2.641-0.441h0.553c0.107,0.11,0.107-0.221,0.107-0.221s-1.43-0.881-1.652-0.991
					c-0.11-0.219-0.221,0.11-0.221,0.11l-1.429,1.102v-0.991h-1.872v1.653v5.283h-0.222c-0.109-0.329-0.219-0.771-0.441-1.211
					c0,0.11-0.11,0-0.11,0.11c0,0-0.218,1.431-1.211,3.413C200.157,26.636,201.698,26.747,202.14,25.755z"/>
				<path fill="#FFFFFF" d="M185.183,25.755c-0.659-0.99-1.209-2.202-1.65-3.632h3.852h2.645h0.659c0.222,0,0-0.331,0-0.331
					s-1.54-1.433-1.76-1.543c-0.331-0.107-0.442,0-0.442,0l-1.102,0.994h-4.401V18.16v-1.874h-2.092v1.874v3.083h-6.936v0.88h6.825
					c0,0.88-0.111,2.201-0.552,3.632c-0.771,2.643-2.642,5.614-6.826,7.047c0.111,0.111,0.22,0.111,0.331,0.111
					c5.504-0.771,7.706-4.296,8.696-7.158c0.442-1.539,0.553-2.862,0.553-3.523c0.217,1.322,0.55,2.533,0.879,3.523
					c1.872,5.725,4.624,7.267,5.726,7.158c0.22,0-0.333-1.544,1.76-1.982l-0.11-0.111C190.029,30.378,187.167,28.948,185.183,25.755
					z"/>
				<path fill="#FFFFFF" d="M158.979,27.407h-6.826v-0.44h-1.871v5.946h1.871v-0.66h6.826v0.66h2.092v-5.836l-2.092-0.22V27.407z
					 M158.979,31.48h-6.826v-1.211h6.826V31.48z M158.979,29.387h-6.826v-1.101h6.826V29.387z"/>
				<path fill="#FFFFFF" d="M211.168,20.47c0,0-1.322-0.549-1.432-0.66c-0.221-0.11-0.111,0-0.221,0.11
					c-0.111,0.221-0.221,0.549-0.439,0.77c-0.441-0.221-0.88-0.331-1.433-0.331c0,0,0.332,0.441,0.881,0.991
					c-0.992,0.881-1.981,1.542-1.981,1.542c-0.439,0.44,1.1-0.222,2.533-0.881c0.218,0.33,0.439,0.66,0.66,0.992
					c0.44,0.55,1.211-0.551,0.77-1.211c-0.11,0-0.218-0.221-0.439-0.441c0.221-0.108,0.439-0.219,0.66-0.44L211.168,20.47z"/>
				<path fill="#FFFFFF" d="M96.001,23.883c0.551,0.66,1.543-0.77,0.992-1.76c-0.222-0.331-0.881-1.212-3.193-1.433
					c0,0-0.109,0-0.109,0.11C93.69,20.801,94.9,21.902,96.001,23.883z"/>
				<path fill="#FFFFFF" d="M132.885,22.562h1.874v-2.531h2.752c0.22,0,0-0.221,0-0.221s-1.211-1.212-1.433-1.322
					c-0.219-0.11-0.329,0-0.329,0l-0.771,0.771h-0.219V18.16v-1.542l-1.874-0.221v0.77h-6.606v0.773h6.606v0.221v1.099h-6.166v0.772
					h6.166v1.319h-6.606v0.772h6.606V22.562z"/>
				<path fill="#FFFFFF" d="M123.528,22.123c-0.332-0.331-0.881-1.212-3.305-1.543c0,0.11,0,0.11,0,0.11s1.102,1.102,2.203,3.083
					C123.086,24.433,124.078,23.114,123.528,22.123z"/>
				<path fill="#FFFFFF" d="M135.749,22.671c0,0-0.22,0.222-0.442,0.771h-9.028c-0.11-0.329-0.11-0.549-0.221-0.88
					c0,0.109-0.109,0-0.109,0.109c0,0-0.551,1.212-1.762,2.863c0.661-2.42,1.542-5.286,1.652-6.384c0,0,0.11-1.101-0.332,0.218
					c-0.55,2.313-1.431,4.295-2.422,6.387c-0.221,0.439-0.439,0.881-0.66,1.322c-0.11,0.218-0.66,0.88-1.433,0.771l-0.659,0.11
					c-0.111,0-0.221,0.111-0.111,0.221c0.441,0.108,0.22-0.11,0.552,0.108c1.762,0.441,1.209,3.414,1.32,4.404
					c0,0.66,2.092,0.442,2.313-1.211c-0.111-1.32-0.551-1.982-0.991-2.863c0.111-0.439,0.329-1.43,0.66-2.531
					c0.11,0.439,0.991,0.66,1.542,0.218h1.651c0.44,1.653,1.322,2.865,2.202,3.745c-1.322,1.102-2.862,1.872-4.844,2.421v0.11
					c2.312-0.11,4.294-0.77,5.835-1.65c2.642,1.982,5.505,2.091,5.505,1.872c0.109-1.433,0.881-1.761,1.431-2.093
					c0.111-0.111,0-0.221-0.221-0.221c-1.65,0.11-3.412-0.11-4.954-0.66c1.542-1.101,2.534-2.312,3.304-3.303l0.33-0.439
					l-0.44-0.332l-0.331-0.221c1.1-0.659,2.534-1.651,2.534-1.651S136.078,22.893,135.749,22.671z M130.573,29.06
					c-1.1-0.662-2.091-1.543-2.752-2.755h4.956C132.115,27.295,131.455,28.178,130.573,29.06z M126.279,24.216h8.588l-0.441,0.989
					c-0.221-0.22-0.55-0.33-0.659-0.551c-0.11,0-0.332,0.441-0.552,0.88h-7.047C126.169,25.205,126.279,24.765,126.279,24.216z"/>
				<path fill="#FFFFFF" d="M111.196,25.424c-1.982-0.439-3.083-0.549-4.514-2.203h1.101h1.763h1.541c0.22,0,0-0.328,0-0.328
					s-1.541-1.433-1.872-1.542c-0.221-0.108-0.33,0-0.33,0l-1.211,0.991h-0.33v-2.752h2.532h0.662c0.329,0,0.11-0.331,0.11-0.331
					s-0.881-0.661-1.321-1.099h-1.323l-0.66,0.55v-0.55v-1.542l-1.982-0.221v1.764v0.55h-2.533v-0.55v-1.764h-1.871v1.764v0.55
					h-2.421c0-0.111-0.11-0.332-0.221-0.442c0,0,0-0.107-0.11-0.107c-0.33-0.442-1.433-1.322-3.632-1.433c0,0.11,0,0.11,0,0.11
					s0.549,0.439,1.21,1.322c0.44,0.438,0.88,0.991,1.321,1.761c0.441,0.549,0.991,0.221,1.211-0.331h0.66
					c-0.549,2.203-1.321,4.184-2.312,6.166c-0.219,0.439-0.44,0.881-0.771,1.322c-0.109,0.218-0.659,0.88-1.43,0.88H93.8
					c0,0.111-0.109,0.111-0.109,0.221c0.44,0.219,0.219,0,0.66,0.108c1.651,0.441,1.103,3.414,1.322,4.516
					c-0.11,0.549,1.981,0.331,2.202-1.322c0-1.32-0.44-1.982-0.992-2.752l0.111-0.441h0.11c1.322-0.218,2.421-0.991,3.414-1.761
					v4.625c0.11,0.991,0.992,1.429,1.651,1.429c1.872,0,3.964,0,5.615,0c1.21,0,1.763-0.11,2.091-0.438
					c0.772-1.764-0.881,0-0.439-4.295c0-0.11-0.109-0.11-0.109,0c0,0-0.772,1.872-1.542,2.972c-0.219,0-2.863,0.111-3.854,0
					c-0.549,0-1.429,0.111-1.54-0.441v-1.541h3.303v0.66h1.872v-3.411c0.88,0.88,1.65,1.101,1.981,1.209
					c0.55,0.221,0.438,0,0.659-0.218c0.111-0.551,0.221-0.991,0.551-1.322c0.22-0.11,0.331-0.11,0.551-0.221
					C111.196,25.534,111.306,25.424,111.196,25.424z M105.692,23.221c0.329,0.552,0.549,0.995,0.771,1.433l-0.771-0.111v0.662
					h-3.303v-0.881c0.329-0.44,0.549-0.771,0.771-1.103H105.692z M105.36,19.589v2.752h-2.533v-2.752H105.36z M99.306,19.589h1.65
					v2.752h-2.421C98.864,21.243,99.194,20.249,99.306,19.589z M105.692,28.068h-3.303v-1.982h3.303V28.068z M96.993,28.068
					c0.22-0.552,0.441-1.432,0.66-2.313c0.221-0.77,0.44-1.65,0.661-2.534h2.312c-0.221,0.552-0.551,1.543-1.211,2.534
					C98.864,26.636,98.094,27.516,96.993,28.068z"/>
				<path fill="#FFFFFF" d="M156.558,17.058c0.441-0.331,0.66-0.552,0.549-0.552c-0.991-0.22-1.981-0.439-3.191-0.55h-0.11
					c-0.332,0.55-0.881,1.32-1.654,2.203c-0.881,0.88-1.981,1.872-2.973,2.641c-0.99,0.66-1.871,1.211-2.642,1.431
					c0,0.221,1.213,0.11,2.642-0.439v3.963v0.771h1.872v-0.439h3.745h5.284v0.439h1.874v-0.771v-3.632
					c0.11,0,0.327,0.108,0.439,0.108c0.552,0,0.77,0.221,0.881-0.22c0-0.551,0.22-0.88,0.552-1.321
					c0.109-0.221,0.659-0.549,0.659-0.77v-0.11c-2.092-0.331-3.743,0-6.496-1.65C157.548,17.829,157.107,17.498,156.558,17.058z
					 M156.116,17.498c0.11,0.11,0.332,0.331,0.552,0.662c0.332,0.328,0.66,0.659,1.102,1.099l-0.663,0.772h-4.403
					c0.661-0.552,1.65-1.212,2.532-1.872C155.566,17.829,155.897,17.718,156.116,17.498z M151.052,22.671h3.745v2.642h-0.99
					c0.218-0.328,0.438-0.88,0.11-1.319c-0.221-0.222-0.772-0.773-2.423-0.662c0,0,0.771,0.662,1.761,1.98h-2.202V22.671z
					 M157.989,22.893c-0.109,0-0.441,0.88-1.322,2.42h-0.331v-2.642h3.743v2.642h-3.191c0.771-0.438,2.752-1.65,2.752-1.65
					S158.208,23.114,157.989,22.893z M159.53,20.69c0.11,0.11,0.331,0.332,0.55,0.441v0.661h-9.028v-0.77
					c0.109-0.111,0.331-0.221,0.441-0.332H159.53z"/>
				<path fill="#FFFFFF" d="M208.303,18.16c-0.66,0.659-1.32,1.208-1.32,1.208c-0.44,0.442,0.771-0.109,1.872-0.77
					c0.221,0.221,0.332,0.552,0.549,0.881c0.332,0.441,1.102-0.44,0.772-1.212l-0.11-0.107c-0.11-0.11-0.11-0.11-0.11-0.221
					c0.22-0.221,0.439-0.332,0.549-0.552l0.552-0.438l-1.432-0.662c-0.11,0-0.11,0.11-0.11,0.11
					c-0.111,0.331-0.328,0.552-0.549,0.881c-0.331-0.219-0.77-0.439-1.323-0.439c0,0,0.332,0.439,0.771,1.102
					C208.414,17.939,208.303,18.049,208.303,18.16z"/>
				<path fill="#FFFFFF" d="M108.774,17.718c-0.33-0.11-0.44,0-0.44,0l-0.332,0.442l1.212-0.11
					C108.993,17.939,108.884,17.718,108.774,17.718z"/>
				<path fill="#FFFFFF" d="M122.316,18.16c0.331,0.438,0.77,0.991,1.321,1.761c0.66,0.88,1.762-0.77,1.211-1.653l-0.11-0.107
					c-0.441-0.442-1.431-1.322-3.634-1.433c0,0.11-0.111,0.11-0.111,0.11S121.546,17.277,122.316,18.16z"/>
				<path fill="#FFFFFF" d="M77.835,21.902h6.607c0.328,0,0.109-0.331,0.109-0.331s-1.652-1.43-1.874-1.54
					c-0.327-0.221-0.438,0-0.438,0l-1.102,0.991h-4.294v-2.312c2.659-0.207,4.916-0.409,5.491-0.524l0.299-0.026l-0.178-0.11h0.003
					c-1.652-0.991-1.21-0.991-2.643-1.872c-0.845,0.423-3.627,1.15-6.48,1.892l-0.869,0.188c-1.562,0.293-3.023,0.574-4.21,0.672
					v0.22c1.871,0,4.292-0.111,6.604-0.22v2.092h-7.706v0.88h5.395c-0.771,1.319-2.2,2.751-3.633,3.853
					c-0.659,0.549-1.321,0.992-1.982,1.212v0.11c1.323-0.22,2.422-0.663,3.523-1.211v7.047h1.872v-0.66h7.047v0.66h1.982v-6.719
					c0.991,0.553,1.761,0.773,1.871,0.664c0.11-0.332,0.11-0.771,0.33-1.103c0.11-0.331,0.33-0.55,0.882-0.77
					c0.219,0,0.328,0.11,0.328-0.11C81.36,24.105,78.716,22.562,77.835,21.902z M71.12,25.534c1.76-1.101,2.972-2.313,3.742-3.082
					v3.303v0.221H72.33v-0.221v-0.221H71.12z M79.377,31.48H72.33v-1.872h7.047V31.48z M79.377,28.728H72.33v-1.87h7.047V28.728z
					 M79.377,25.534v0.221v0.221h-2.533v-0.221v-3.853h0.111c0.77,1.54,2.091,2.862,3.413,3.743L79.377,25.534z"/>
			</g>
		</g>
		<path fill-rule="evenodd" clip-rule="evenodd" fill="#FFFFFF" d="M0,62.31c15.415-5.285,28.957,0.109,28.957,0.109
			c20.258,8.259,31.378,4.073,31.378,4.073v-9.909c0,0-9.249,6.056-29.837-0.88c0,0-10.679-3.854-23.782-1.761V15.737
			c9.91-3.193,18.717,0.77,18.717,0.77V9.901c0,0-12-5.174-25.433,1.762V62.31L0,62.31z"/>
		<path fill-rule="evenodd" clip-rule="evenodd" fill="#FFFFFF" d="M53.62,2.855c0,0-13.764-6.497-28.187,0.11v6.825
			C33.14,5.718,41.398,6.488,47.012,7.59v37.543c-4.845-0.881-11.89-1.542-18.716,0.881V14.527c1.321-0.551,2.974-1.103,4.623-1.653
			c0.881-0.33,4.184-1.211,4.295,2.312c0,1.651,0,2.533,0,4.734c0,0.551-0.222,0.99-0.771,1.322c-0.551,0.22-1.87,0.439-1.87,0.439
			v3.083c0,0,0.109,0,1.429-0.22c0.881-0.111,1.212,0.44,1.212,1.431c0.111,2.092,0,6.386,0,6.386s0.111,0.881-0.438,1.432
			c-0.441,0.55-2.313,0.66-2.313,0.66l0.111,2.863c0,0,2.091-0.11,3.19-0.551c0.332-0.109,1.543-0.66,1.984-1.871
			c0.439-1.431,0.439-7.377,0.22-10.019c-0.111-1.762-1.652-2.092-1.652-2.092s1.761-0.881,1.761-2.752c0-2.312,0-4.845,0-5.947
			c0-4.072-3.633-5.284-7.157-4.293c-3.632,0.881-7.486,2.533-7.486,2.533v41.947c12.33-7.707,28.187-0.77,28.187-0.77V2.855
			L53.62,2.855z"/>
	</g>
</g>
</svg>
