<?xml version="1.0" encoding="utf-8"?>
<!-- Generator: Adobe Illustrator 19.1.0, SVG Export Plug-In . SVG Version: 6.00 Build 0)  -->
<svg version="1.1" id="Layer_1" xmlns="http://www.w3.org/2000/svg" xmlns:xlink="http://www.w3.org/1999/xlink" x="0px" y="0px"
	 viewBox="127 -21.6 60.3 67.6" style="enable-background:new 127 -21.6 60.3 67.6;" xml:space="preserve">
<style type="text/css">
	.st0{fill:#FFFFFF;}
</style>
<g>
	<g>
		<path class="st0" d="M171.7,20.6c-5-0.5-9.5-0.1-11.9,0.2l0,0c-1.4,0.3-2.2,0.6-2.2,0.6l-0.1-27.1c1.3-0.8,2.9-1,2.9-1V18
			c2-0.2,5-0.5,8.5-0.3v-30.1c1.4-0.1,2.9,0.3,2.9,0.3L171.7,20.6L171.7,20.6z"/>
		<path class="st0" d="M127,40.8c15.4-5.3,29,0.1,29,0.1c20.3,8.3,31.4,4.1,31.4,4.1V35c0,0-9.2,6.1-29.8-0.9c0,0-10.7-3.9-23.8-1.8
			V-5.8C143.6-9,152.4-5,152.4-5v-6.6c0,0-12-5.2-25.4,1.8V40.8L127,40.8z"/>
		<path class="st0" d="M180.6-18.7c0,0-13.8-6.5-28.2,0.1v6.8c7.7-4.1,16-3.3,21.6-2.2v37.5c-4.8-0.9-11.9-1.5-18.7,0.9V-7
			c1.3-0.6,3-1.1,4.6-1.7c0.9-0.3,4.2-1.2,4.3,2.3c0,1.7,0,2.5,0,4.7c0,0.6-0.2,1-0.8,1.3c-0.6,0.2-1.9,0.4-1.9,0.4v3.1
			c0,0,0.1,0,1.4-0.2c0.9-0.1,1.2,0.4,1.2,1.4c0.1,2.1,0,6.4,0,6.4s0.1,0.9-0.4,1.4c-0.4,0.5-2.3,0.7-2.3,0.7l0.1,2.9
			c0,0,2.1-0.1,3.2-0.6c0.3-0.1,1.5-0.7,2-1.9c0.4-1.4,0.4-7.4,0.2-10c-0.1-1.8-1.7-2.1-1.7-2.1s1.8-0.9,1.8-2.8c0-2.3,0-4.8,0-5.9
			c0-4.1-3.6-5.3-7.2-4.3c-3.6,0.9-7.5,2.5-7.5,2.5v41.9c12.3-7.7,28.2-0.8,28.2-0.8L180.6-18.7L180.6-18.7z"/>
	</g>
</g>
</svg>
