<?xml version="1.0" encoding="utf-8"?>
<!-- Generator: Adobe Illustrator 19.1.0, SVG Export Plug-In . SVG Version: 6.00 Build 0)  -->
<svg version="1.1" id="Layer_1" xmlns="http://www.w3.org/2000/svg" xmlns:xlink="http://www.w3.org/1999/xlink" x="0px" y="0px"
	 viewBox="134.9 -19.8 64 64" style="enable-background:new 134.9 -19.8 64 64;" xml:space="preserve">
<style type="text/css">
	.st0{fill:#FFFFFF;}
</style>
<g id="schlogo.psd_9_">
	<path class="st0" d="M166.9,43.6c-17.2,0-31.4-14.2-31.4-31.4s14.2-31.7,31.4-31.7s31.4,14.2,31.4,31.4S184.1,43.6,166.9,43.6z
		 M166.9-17.1c-15.9,0-29,13.1-29,29s13.1,29,29,29s29-13.1,29-29S182.8-17.1,166.9-17.1z"/>
	<g>
		<path class="st0" d="M192.6,10.8c-0.3,0-0.8,0-1.1,0c-6,0-11.8,0-17.8,0c-0.8,0-1.1-0.3-1.1-1.1s0-1.9,0-2.7
			c0-0.5,0.3-0.8,0.8-0.8c6,0,12.3,0,18.6,0C192.3,7.8,192.6,9.1,192.6,10.8z"/>
		<path class="st0" d="M180.3-10c3.8,2.5,7.1,5.7,9.3,9.8c-4.9,0-9.8,0-15,0C175.1-1.8,178.7-8.1,180.3-10z"/>
		<path class="st0" d="M163.1-13.5c3.8-0.5,7.4-0.3,11.2,0.8c-1.1,1.4-2.2,2.7-3,4.1c-1.4,2.7-2.7,4.9-3.8,7.7
			c-0.3,0.5-0.3,0.8-1.1,0.8c-1.9,0-3.6,0-5.7,0C162.5-4.5,163.4-8.6,163.1-13.5z"/>
		<path class="st0" d="M160.3,6.4c1.9,0,3.8,0,5.7,0c0,1.4,0,3,0,4.1c-1.9,0-3.6,0-5.7,0C160.3,9.1,160.3,7.8,160.3,6.4z"/>
		<path class="st0" d="M154.3,33.7c-5.7-3.3-9.6-8.2-11.8-14.5c4.4-1.6,8.5-3.8,11.8-7.7C154.3,19,154.3,26.4,154.3,33.7z"/>
		<path class="st0" d="M152.7,2.9c-1.6,3-3.3,5.2-6.3,6.8c-1.6,0.8-3.3,1.6-5.2,2.2c-0.3-10.1,6.3-19.7,15.3-23.2
			C156.2-6.4,155.2-1.2,152.7,2.9z"/>
		<path class="st0" d="M160.3,36.5c0-1.6,0-3.3,0-4.4c2.5-0.3,8.5,2.5,9.3,5.2C166.4,37,163.4,36.8,160.3,36.5z"/>
		<path class="st0" d="M171.6,29.6c-1.9-0.8-3.3-1.9-4.9-2.7c-1.9-0.8-3.3-1.4-5.2-1.9c-0.8-0.3-1.1-0.3-1.1-1.4c0-2.5,0-4.9,0-7.4
			c2.5,0,4.6,0,7.1,0c1.6,3.6,3.8,6.8,7.1,9.3C173.5,27.2,172.4,28.3,171.6,29.6z"/>
		<path class="st0" d="M175.7,35.7C175.7,35.7,175.7,35.4,175.7,35.7c2.5-3.6,4.9-7.4,7.7-11.2c-3.3-2.2-6.3-4.4-8.2-7.9
			c5.7,0,11.5,0,17.2,0C189.9,25.8,184.4,32.1,175.7,35.7z"/>
		<path class="st0" d="M156.5-11.4c-0.3,4.9-1.4,9.8-3.6,14.5c-1.6,3-3.3,5.2-6.3,6.8c-1.6,0.8-3.3,1.6-5.2,2.5
			C141.2,1.8,147.5-7.5,156.5-11.4z"/>
		<path class="st0" d="M192.3,16.8c-2.5,9.6-7.9,15.6-16.4,18.9c0,0-0.3,0-0.3-0.3c2.7-3.6,5.2-7.4,7.7-10.9
			c-3.3-2.2-6.3-4.4-8.2-7.9C180.8,16.8,186.6,16.8,192.3,16.8z"/>
		<path class="st0" d="M154.3,33.7c-5.7-3.3-9.6-8.2-11.8-14.5c4.4-1.6,8.5-3.8,11.8-7.7C154.3,19,154.3,26.4,154.3,33.7z"/>
		<path class="st0" d="M163.1-13.5c3.8-0.5,7.4-0.3,11.2,0.8c-1.1,1.4-2.2,2.7-3,4.1c-1.4,2.7-2.7,4.9-3.8,7.7
			c-0.3,0.5-0.3,0.8-1.1,0.8c-1.9,0-3.6,0-5.7,0C162.5-4.5,163.4-8.6,163.1-13.5z"/>
		<path class="st0" d="M160.3,16.5c2.5,0,4.6,0,7.1,0c1.6,3.6,3.8,6.8,7.1,9.3c-1.1,1.4-1.9,2.7-3,3.6c-1.9-0.8-3.3-1.9-4.9-2.7
			c-1.9-0.8-3.3-1.4-5.2-1.9c-0.8-0.3-1.1-0.3-1.1-1.4C160.3,21.4,160.3,19,160.3,16.5z"/>
		<path class="st0" d="M174.8-0.1c0.3-1.9,3.8-8.2,5.5-9.8c3.8,2.5,7.1,5.7,9.3,9.8C184.7-0.1,179.8-0.1,174.8-0.1z"/>
		<path class="st0" d="M192.1,6.1c0.3,1.6,0.3,3,0.5,4.6c-0.3,0-0.8,0-1.1,0c-6,0-11.8,0-17.8,0c-0.8,0-1.1-0.3-1.1-1.1s0-1.9,0-2.7
			c0-0.5,0.3-0.8,0.8-0.8C179.8,6.1,185.8,6.1,192.1,6.1z"/>
		<path class="st0" d="M169.6,37.3c-3.3-0.3-6.3-0.5-9.3-0.8c0-1.6,0-3.3,0-4.4C162.5,31.6,168.5,34.3,169.6,37.3z"/>
		<path class="st0" d="M160.3,6.4c1.9,0,3.8,0,5.7,0c0,1.4,0,3,0,4.1c-1.9,0-3.6,0-5.7,0C160.3,9.1,160.3,7.8,160.3,6.4z"/>
	</g>
</g>
</svg>
