<?xml version="1.0" encoding="utf-8"?>
<!-- Generator: Adobe Illustrator 16.0.0, SVG Export Plug-In . SVG Version: 6.00 Build 0)  -->
<!DOCTYPE svg PUBLIC "-//W3C//DTD SVG 1.1//EN" "http://www.w3.org/Graphics/SVG/1.1/DTD/svg11.dtd">
<svg version="1.1" id="Layer_1" xmlns="http://www.w3.org/2000/svg" xmlns:xlink="http://www.w3.org/1999/xlink" x="0px" y="0px"
	 width="292.017px" height="67.553px" viewBox="0 0 292.017 67.553" enable-background="new 0 0 292.017 67.553"
	 xml:space="preserve">
<g>
	<g id="schlogo.psd_2_">
		<g>
			<path fill="#FFFFFF" d="M29.819,1c2.401,0,4.803,0,7.205,0c0.154,0.084,0.302,0.225,0.463,0.242
				c3.386,0.373,6.629,1.279,9.706,2.724c4.293,2.016,8.023,4.78,11.085,8.443c2.233,2.672,4.021,5.585,5.331,8.813
				c2.043,5.037,2.547,10.244,1.998,15.615c-0.37,3.604-1.375,7.018-2.988,10.232c-2.186,4.356-5.161,8.083-9.052,11.089
				c-4.081,3.152-8.588,5.286-13.655,6.241c-0.969,0.184-1.925,0.427-2.888,0.643c-2.401,0-4.803,0-7.205,0
				c-0.154-0.084-0.302-0.225-0.463-0.242c-3.383-0.37-6.621-1.281-9.697-2.717c-4.83-2.253-8.916-5.463-12.144-9.726
				c-3.16-4.175-5.271-8.808-6.074-14.011C1.342,37.699,1.15,37.064,1,36.424c0-2.268,0-4.537,0-6.805
				c0.082-0.121,0.228-0.236,0.238-0.363c0.29-3.611,1.354-7.018,2.958-10.228c1.959-3.922,4.566-7.358,7.952-10.217
				c4.362-3.683,9.267-6.147,14.888-7.18C27.97,1.459,28.892,1.212,29.819,1z M33.362,3.309C17.258,3.097,3.595,16.201,3.582,32.756
				C3.568,49.302,17.026,62.345,33.338,62.345c16.142-0.001,29.698-12.894,29.725-29.521C63.09,16.24,49.435,3.138,33.362,3.309z"/>
			<path fill-rule="evenodd" clip-rule="evenodd" fill="#FFFFFF" d="M60.995,31.779c-0.422,0-0.743,0-1.063,0
				c-6.364,0-12.729-0.017-19.094,0.02c-0.903,0.004-1.262-0.218-1.179-1.164c0.081-0.926,0.037-1.865,0.01-2.797
				c-0.016-0.542,0.156-0.779,0.737-0.778c6.597,0.013,13.194,0.009,19.984,0.009C60.591,28.635,60.783,30.132,60.995,31.779z"/>
			<path fill-rule="evenodd" clip-rule="evenodd" fill="#FFFFFF" d="M47.734,9.518c4.236,2.623,7.595,6.084,10.042,10.583
				c-5.439,0-10.769,0-16.102,0C41.944,18.131,45.834,11.324,47.734,9.518z"/>
			<path fill-rule="evenodd" clip-rule="evenodd" fill="#FFFFFF" d="M29.072,5.88c4.164-0.744,8.16-0.348,12.215,0.793
				c-1.043,1.549-2.144,2.933-2.971,4.464c-1.461,2.706-2.779,5.491-4.101,8.27c-0.242,0.509-0.422,0.786-1.044,0.772
				c-1.996-0.043-3.993-0.016-6.13-0.016C28.456,15.491,29.132,10.808,29.072,5.88z"/>
			<path fill-rule="evenodd" clip-rule="evenodd" fill="#FFFFFF" d="M26.129,27.127c2.089,0,4.129,0,6.139,0c0,1.539,0,3.02,0,4.575
				c-2.076,0-4.076,0-6.139,0C26.129,30.204,26.129,28.723,26.129,27.127z"/>
			<path fill-rule="evenodd" clip-rule="evenodd" fill="#FFFFFF" d="M19.672,56.537c-6.22-3.632-10.44-8.775-12.762-15.601
				c4.786-1.767,9.065-4.353,12.762-8.187C19.672,40.75,19.672,48.57,19.672,56.537z"/>
			<path fill-rule="evenodd" clip-rule="evenodd" fill="#FFFFFF" d="M17.934,23.437c-1.6,2.967-3.671,5.577-6.641,7.263
				c-1.734,0.982-3.645,1.654-5.579,2.512C5.511,22.112,12.443,11.996,21.98,8.005C21.603,13.487,20.507,18.662,17.934,23.437z"/>
			<path fill-rule="evenodd" clip-rule="evenodd" fill="#FFFFFF" d="M26.103,59.432c0-1.76,0-3.281,0-4.802
				c2.417-0.198,8.906,2.616,9.945,5.646C32.653,59.987,29.386,59.711,26.103,59.432z"/>
			<path fill-rule="evenodd" clip-rule="evenodd" fill="#FFFFFF" d="M38.273,52.102c-1.854-0.967-3.589-2.011-5.436-2.793
				c-1.848-0.783-3.797-1.338-5.724-1.92c-0.714-0.215-1.101-0.414-1.074-1.299c0.077-2.627,0.028-5.256,0.028-7.984
				c2.648,0,5.145,0,7.691,0c1.638,3.988,4.307,7.209,7.608,9.962C40.293,49.468,39.268,50.805,38.273,52.102z"/>
			<path fill-rule="evenodd" clip-rule="evenodd" fill="#FFFFFF" d="M42.598,58.554c-0.075-0.06-0.149-0.118-0.224-0.179
				c2.751-3.918,5.503-7.838,8.302-11.824c-3.609-2.129-6.725-4.67-8.868-8.422c6.3,0,12.446,0,18.687,0
				C58.019,48.172,52.03,54.893,42.598,58.554z"/>
			<path fill-rule="evenodd" clip-rule="evenodd" fill="#FFFFFF" d="M21.98,8.005c-0.377,5.481-1.473,10.656-4.046,15.431
				c-1.6,2.967-3.671,5.577-6.641,7.263c-1.734,0.982-3.645,1.654-5.579,2.512C5.511,22.112,12.443,11.996,21.98,8.005z"/>
			<path fill-rule="evenodd" clip-rule="evenodd" fill="#FFFFFF" d="M60.496,38.129c-2.477,10.043-8.465,16.764-17.898,20.425
				c-0.075-0.06-0.149-0.118-0.224-0.179c2.751-3.918,5.503-7.838,8.302-11.824c-3.609-2.129-6.725-4.67-8.868-8.422
				C48.109,38.129,54.255,38.129,60.496,38.129z"/>
			<path fill-rule="evenodd" clip-rule="evenodd" fill="#FFFFFF" d="M19.672,56.537c-6.22-3.632-10.44-8.775-12.762-15.601
				c4.786-1.767,9.065-4.353,12.762-8.187C19.672,40.75,19.672,48.57,19.672,56.537z"/>
			<path fill-rule="evenodd" clip-rule="evenodd" fill="#FFFFFF" d="M29.072,5.88c4.164-0.744,8.16-0.348,12.215,0.793
				c-1.043,1.549-2.144,2.933-2.971,4.464c-1.461,2.706-2.779,5.491-4.101,8.27c-0.242,0.509-0.422,0.786-1.044,0.772
				c-1.996-0.043-3.993-0.016-6.13-0.016C28.456,15.491,29.132,10.808,29.072,5.88z"/>
			<path fill-rule="evenodd" clip-rule="evenodd" fill="#FFFFFF" d="M26.067,38.105c2.648,0,5.145,0,7.691,0
				c1.638,3.988,4.307,7.209,7.608,9.962c-1.074,1.4-2.099,2.737-3.093,4.034c-1.854-0.967-3.589-2.011-5.436-2.793
				c-1.848-0.783-3.797-1.338-5.724-1.92c-0.714-0.215-1.101-0.414-1.074-1.299C26.117,43.463,26.067,40.834,26.067,38.105z"/>
			<path fill-rule="evenodd" clip-rule="evenodd" fill="#FFFFFF" d="M41.673,20.101c0.271-1.97,4.161-8.777,6.061-10.583
				c4.236,2.623,7.595,6.084,10.042,10.583C52.336,20.101,47.007,20.101,41.673,20.101z"/>
			<path fill-rule="evenodd" clip-rule="evenodd" fill="#FFFFFF" d="M60.389,27.068c0.202,1.566,0.394,3.063,0.605,4.711
				c-0.422,0-0.743,0-1.063,0c-6.364,0-12.729-0.017-19.094,0.02c-0.903,0.004-1.262-0.218-1.179-1.164
				c0.081-0.926,0.037-1.865,0.01-2.797c-0.016-0.542,0.156-0.779,0.737-0.778C47.002,27.072,53.599,27.068,60.389,27.068z"/>
			<path fill-rule="evenodd" clip-rule="evenodd" fill="#FFFFFF" d="M36.048,60.275c-3.395-0.288-6.662-0.564-9.945-0.844
				c0-1.76,0-3.281,0-4.802C28.52,54.432,35.009,57.246,36.048,60.275z"/>
			<path fill-rule="evenodd" clip-rule="evenodd" fill="#FFFFFF" d="M26.129,27.127c2.089,0,4.129,0,6.139,0c0,1.539,0,3.02,0,4.575
				c-2.076,0-4.076,0-6.139,0C26.129,30.204,26.129,28.723,26.129,27.127z"/>
		</g>
	</g>
	<g>
		<g>
			<path fill="#FFFFFF" d="M76.048,16.2l2.207,0.553c-0.23,1.01-0.503,1.988-0.825,2.916v12.621h-2.076v-8.172
				c-0.303,0.51-0.623,0.998-0.963,1.471l-0.836-2.54C74.701,21.202,75.522,18.91,76.048,16.2z M78.397,16.752h4.285v-0.768h2.129
				v0.768h4.696v1.719h-4.696v0.699h4.218v5.245h-0.744c0.481,0.466,0.942,0.947,1.359,1.458l-1.166,1.23
				c-0.175-0.226-0.347-0.452-0.518-0.686c-0.199,0.009-0.394,0.025-0.589,0.039v0.861h2.414v1.744h-2.414v1.452
				c0,1.097-0.534,1.638-1.592,1.638h-2.216l-0.267-1.996c0.859,0.04,1.341,0.062,1.452,0.062c0.319,0,0.48-0.129,0.48-0.398v-0.758
				h-4.618c0.661,0.242,1.415,0.582,2.273,1.021l-0.963,1.948c-1.085-0.756-2.099-1.348-3.043-1.746l0.953-1.223h-1.916v-1.744
				h7.314v-0.752c-2.075,0.072-4.439,0.123-7.113,0.133l-0.267-1.726c1.735,0.092,2.715,0.135,2.946,0.135h1.886v-0.693h-4.146
				V19.17h4.146v-0.686h-4.285V16.752z M80.548,21.243h2.135v-0.689h-2.135V21.243z M82.683,23.056v-0.782h-2.135v0.782H82.683z
				 M84.812,20.554v0.689h2.221v-0.689H84.812z M87.033,23.056v-0.782h-2.221v0.782H87.033z M86.8,25.108
				c-0.222-0.228-0.444-0.455-0.676-0.693h-1.312v0.693H86.8z"/>
			<path fill="#FFFFFF" d="M91.408,17.184h5.593v1.847H95.34v3.111h1.384v1.925H95.34v2.979c0.586-0.167,1.165-0.355,1.725-0.561
				v2.064c-1.636,0.625-3.454,1.152-5.446,1.588l-0.42-2.201c0.671-0.092,1.345-0.212,2-0.348v-3.521h-1.58v-1.925h1.58V19.03
				h-1.791V17.184z M97.349,16.828h9.323v8.578h-3.606v1.222h3.311v1.797h-3.311v1.396h4.352v1.991H96.242V29.82h4.685v-1.396
				h-3.312v-1.797h3.312v-1.222h-3.578V16.828z M99.42,20.281h1.507v-1.73H99.42V20.281z M100.927,23.661v-1.8H99.42v1.8H100.927z
				 M103.066,18.551v1.73h1.528v-1.73H103.066z M104.594,23.661v-1.8h-1.528v1.8H104.594z"/>
			<path fill="#FFFFFF" d="M112.019,25.405h9.805v1.151c-0.975,0.531-2.099,0.986-3.37,1.379h6.621v1.816h-6.766v1.225
				c-0.08,0.83-0.676,1.244-1.798,1.244h-3.182l-0.273-1.711c1.438,0.053,2.244,0.072,2.416,0.072c0.316,0,0.481-0.146,0.481-0.428
				v-0.402h-7.247v-1.816h7.247v-0.328c0.905-0.228,1.681-0.483,2.331-0.76h-6.265V25.405z M113.749,15.987l0.832,1.732
				c-0.617,0.154-1.497,0.28-2.624,0.402l0.014,0.583h2.123v1.525h-2.088l0.015,0.69h2.074v1.524h-2.037l0.017,0.674h2.806
				l-0.581-1.26c0.667-0.174,1.267-0.406,1.833-0.684c-0.344-0.285-0.681-0.543-1.011-0.771l1.108-0.945
				c0.449,0.287,0.87,0.568,1.25,0.845c0.381-0.307,0.717-0.634,1.025-0.997l1.183,0.966c-0.331,0.337-0.663,0.674-1,0.962
				c0.288,0.256,0.554,0.483,0.785,0.688l-0.988,1.195h3.422l0.019-0.674h-1.966v-1.524h2.003l0.014-0.638h-2.088v-1.455h2.098
				l0.014-0.698h-2.312v-1.638h4.412l-0.13,6.626h0.745v3.915h-2.141V24.75h-11.31v2.282h-2.139v-3.915h0.803l-0.109-6.498
				C111.133,16.544,112.43,16.343,113.749,15.987z M118.157,15.984l1.174,0.972c-0.264,0.273-0.53,0.537-0.827,0.776
				c0.227,0.201,0.442,0.375,0.623,0.542l-1.086,1.309c-0.312-0.304-0.613-0.582-0.918-0.843c-0.722,0.43-1.508,0.788-2.344,1.05
				l-0.691-1.447c0.661-0.167,1.276-0.382,1.833-0.662c-0.373-0.28-0.733-0.547-1.084-0.796l1.115-0.963
				c0.473,0.312,0.931,0.609,1.344,0.894C117.591,16.583,117.883,16.298,118.157,15.984z M115.552,23.117h2.673
				c-0.306-0.324-0.607-0.625-0.887-0.899C116.767,22.566,116.177,22.865,115.552,23.117z"/>
			<path fill="#FFFFFF" d="M132.292,16.491v1.449c-0.225,1.076-0.585,2.452-1.106,4.128c0.736,1.229,1.106,2.321,1.106,3.263
				c0,1.07-0.24,1.836-0.697,2.294c-0.335,0.415-1.23,0.638-2.688,0.662v4.008h-2.009V16.491H132.292z M128.907,26.246
				c0.239,0.028,0.394,0.032,0.486,0.032c0.569-0.004,0.867-0.323,0.897-0.952c0-0.926-0.387-2.021-1.173-3.261
				c0.559-1.239,0.942-2.388,1.173-3.431h-1.383V26.246z M132.491,23.998h10.012v1.934h-2.557v3.667
				c0,0.322,0.071,0.484,0.203,0.484h0.35c0.183,0,0.265-0.315,0.275-0.946l0.071-1.472l2.008,0.642
				c-0.132,1.828-0.39,2.918-0.767,3.276c-0.219,0.255-0.601,0.378-1.171,0.378h-1.373c-0.625,0-1.083-0.13-1.338-0.398
				c-0.263-0.273-0.39-0.67-0.39-1.206v-4.425h-1.352c-0.119,1.689-0.43,2.949-0.916,3.76c-0.614,1.049-1.574,1.914-2.916,2.596
				l-1.446-1.936c1.137-0.482,1.956-1.086,2.449-1.795c0.368-0.557,0.602-1.433,0.697-2.625h-1.84V23.998z M137.811,15.918
				c0.22,0.452,0.431,0.93,0.607,1.403h3.939v4.126h-1.527v1.107h-6.823v-1.107h-1.516v-4.126h3.565
				c-0.184-0.441-0.419-0.849-0.665-1.199L137.811,15.918z M134.627,20.625h5.595v-1.467h-5.595V20.625z"/>
		</g>
		<g>
			<path fill="#FFFFFF" d="M80.976,42.32l-1.796,1.602c-0.631-0.887-1.28-1.325-1.937-1.325c-0.321,0-0.58,0.083-0.785,0.26
				c-0.205,0.16-0.3,0.353-0.3,0.574c0,0.218,0.068,0.416,0.213,0.604c0.195,0.26,0.788,0.803,1.787,1.641
				c0.926,0.779,1.491,1.268,1.687,1.473c0.49,0.496,0.847,0.973,1.048,1.428c0.21,0.457,0.313,0.953,0.313,1.492
				c0,1.049-0.371,1.915-1.091,2.605c-0.724,0.676-1.677,1.017-2.843,1.017c-0.912,0-1.701-0.228-2.381-0.668
				c-0.677-0.448-1.256-1.151-1.736-2.104l2.043-1.239c0.618,1.14,1.332,1.698,2.127,1.698c0.417,0,0.772-0.124,1.056-0.363
				c0.293-0.245,0.428-0.521,0.428-0.85c0-0.283-0.11-0.574-0.325-0.86c-0.219-0.288-0.69-0.734-1.422-1.329
				c-1.382-1.141-2.287-2.015-2.696-2.636c-0.403-0.616-0.616-1.229-0.616-1.843c0-0.889,0.342-1.654,1.024-2.285
				c0.673-0.632,1.509-0.943,2.5-0.943c0.642,0,1.258,0.138,1.833,0.441C79.675,40.995,80.31,41.548,80.976,42.32z"/>
			<path fill="#FFFFFF" d="M92.312,45.82l-1.978,1.086c-0.369-0.39-0.739-0.656-1.096-0.81c-0.361-0.153-0.796-0.226-1.278-0.226
				c-0.88,0-1.604,0.264-2.16,0.797c-0.547,0.535-0.817,1.211-0.817,2.041c0,0.799,0.259,1.455,0.791,1.963
				c0.531,0.51,1.221,0.77,2.08,0.77c1.066,0,1.89-0.365,2.48-1.093l1.864,1.28c-1.005,1.327-2.444,1.986-4.292,1.986
				c-1.663,0-2.971-0.494-3.902-1.484c-0.945-0.983-1.416-2.128-1.416-3.453c0-0.92,0.22-1.762,0.686-2.537
				c0.461-0.771,1.098-1.375,1.917-1.815c0.818-0.441,1.742-0.666,2.749-0.666c0.942,0,1.792,0.194,2.529,0.563
				C91.233,44.602,91.841,45.127,92.312,45.82z"/>
			<path fill="#FFFFFF" d="M94.241,40.248h2.367v4.619c0.458-0.405,0.918-0.703,1.397-0.904c0.464-0.201,0.949-0.304,1.425-0.304
				c0.944,0,1.733,0.327,2.379,0.979c0.551,0.557,0.825,1.391,0.825,2.479v6.245h-2.329v-4.148c0-1.09-0.064-1.827-0.164-2.219
				c-0.107-0.394-0.279-0.68-0.526-0.871c-0.266-0.191-0.574-0.287-0.944-0.287c-0.478,0-0.898,0.168-1.24,0.479
				c-0.349,0.319-0.595,0.756-0.721,1.3c-0.065,0.291-0.103,0.937-0.103,1.954v3.793h-2.367V40.248z"/>
			<path fill="#FFFFFF" d="M109.162,43.659c0.896,0,1.736,0.225,2.521,0.676c0.782,0.448,1.4,1.056,1.833,1.813
				c0.451,0.768,0.662,1.598,0.662,2.481c0,0.899-0.211,1.725-0.662,2.507c-0.44,0.775-1.051,1.383-1.816,1.819
				c-0.761,0.445-1.606,0.659-2.528,0.659c-1.354,0-2.512-0.48-3.482-1.45c-0.953-0.968-1.436-2.132-1.436-3.517
				c0-1.479,0.541-2.711,1.621-3.697C106.835,44.096,107.923,43.659,109.162,43.659z M109.201,45.902
				c-0.735,0-1.352,0.256-1.84,0.766c-0.488,0.516-0.735,1.171-0.735,1.973c0,0.816,0.237,1.492,0.732,1.994
				c0.475,0.513,1.092,0.766,1.836,0.766c0.746,0,1.359-0.257,1.854-0.771c0.491-0.517,0.736-1.182,0.736-1.988
				c0-0.815-0.244-1.471-0.729-1.979C110.573,46.148,109.955,45.902,109.201,45.902z"/>
			<path fill="#FFFFFF" d="M120.353,43.659c0.906,0,1.728,0.225,2.524,0.676c0.781,0.448,1.392,1.056,1.832,1.813
				c0.447,0.768,0.663,1.598,0.663,2.481c0,0.899-0.216,1.725-0.67,2.507c-0.433,0.775-1.044,1.383-1.803,1.819
				c-0.774,0.445-1.614,0.659-2.536,0.659c-1.352,0-2.514-0.48-3.476-1.45c-0.959-0.968-1.441-2.132-1.441-3.517
				c0-1.479,0.546-2.711,1.626-3.697C118.021,44.096,119.12,43.659,120.353,43.659z M120.39,45.902c-0.734,0-1.345,0.256-1.84,0.766
				c-0.48,0.516-0.734,1.171-0.734,1.973c0,0.816,0.239,1.492,0.727,1.994c0.485,0.513,1.103,0.766,1.846,0.766
				c0.739,0,1.358-0.257,1.849-0.771c0.485-0.517,0.74-1.182,0.74-1.988c0-0.815-0.242-1.471-0.734-1.979
				C121.763,46.148,121.142,45.902,120.39,45.902z"/>
			<path fill="#FFFFFF" d="M126.838,40.248h2.371v13.115h-2.371V40.248z"/>
			<path fill="#FFFFFF" d="M140.364,43.659c0.896,0,1.744,0.225,2.529,0.676c0.788,0.448,1.396,1.056,1.844,1.813
				c0.434,0.768,0.647,1.598,0.647,2.481c0,0.899-0.213,1.725-0.659,2.507c-0.436,0.775-1.044,1.383-1.809,1.819
				c-0.765,0.445-1.615,0.659-2.537,0.659c-1.353,0-2.517-0.48-3.477-1.45c-0.962-0.968-1.446-2.132-1.446-3.517
				c0-1.479,0.552-2.711,1.637-3.697C138.04,44.096,139.137,43.659,140.364,43.659z M140.416,45.902
				c-0.744,0-1.345,0.256-1.849,0.766c-0.486,0.516-0.723,1.171-0.723,1.973c0,0.816,0.237,1.492,0.719,1.994
				c0.48,0.513,1.101,0.766,1.848,0.766c0.741,0,1.353-0.257,1.848-0.771c0.491-0.517,0.73-1.182,0.73-1.988
				c0-0.815-0.236-1.471-0.721-1.979C141.783,46.148,141.165,45.902,140.416,45.902z"/>
			<path fill="#FFFFFF" d="M145.993,43.914h0.85c0-1.25,0.022-1.986,0.057-2.212c0.065-0.521,0.286-0.938,0.66-1.242
				c0.375-0.312,0.901-0.458,1.593-0.458c0.483,0,1.05,0.109,1.671,0.338v1.812c-0.35-0.102-0.627-0.143-0.851-0.143
				c-0.28,0-0.492,0.058-0.606,0.167c-0.104,0.089-0.148,0.267-0.148,0.543l-0.005,1.194h1.511v2.01h-1.511v7.439h-2.372v-7.439
				h-0.85V43.914z"/>
			<path fill="#FFFFFF" d="M168.684,42.829l-1.701,1.622c-1.157-1.223-2.462-1.827-3.913-1.827c-1.216,0-2.249,0.411-3.08,1.239
				c-0.846,0.841-1.26,1.875-1.26,3.097c0,0.854,0.188,1.609,0.556,2.271c0.37,0.665,0.896,1.179,1.575,1.558
				c0.676,0.372,1.424,0.562,2.257,0.562c0.704,0,1.351-0.125,1.934-0.393c0.586-0.266,1.235-0.748,1.932-1.439l1.652,1.725
				c-0.952,0.917-1.844,1.562-2.684,1.911c-0.838,0.359-1.795,0.535-2.881,0.535c-1.987,0-3.611-0.628-4.887-1.897
				c-1.267-1.254-1.896-2.876-1.896-4.836c0-1.281,0.282-2.414,0.857-3.404c0.581-0.996,1.412-1.789,2.487-2.386
				c1.075-0.608,2.236-0.899,3.475-0.899c1.054,0,2.08,0.213,3.05,0.666C167.14,41.378,167.981,42.014,168.684,42.829z"/>
			<path fill="#FFFFFF" d="M174.783,43.659c0.902,0,1.732,0.225,2.521,0.676c0.789,0.448,1.404,1.056,1.842,1.813
				c0.44,0.768,0.665,1.598,0.665,2.481c0,0.899-0.225,1.725-0.672,2.507c-0.434,0.775-1.046,1.383-1.812,1.819
				c-0.766,0.445-1.606,0.659-2.535,0.659c-1.35,0-2.502-0.48-3.479-1.45c-0.956-0.968-1.434-2.132-1.434-3.517
				c0-1.479,0.541-2.711,1.628-3.697C172.46,44.096,173.555,43.659,174.783,43.659z M174.819,45.902
				c-0.727,0-1.342,0.256-1.833,0.766c-0.487,0.516-0.735,1.171-0.735,1.973c0,0.816,0.248,1.492,0.73,1.994
				c0.48,0.513,1.101,0.766,1.833,0.766c0.746,0,1.364-0.257,1.855-0.771c0.492-0.517,0.741-1.182,0.741-1.988
				c0-0.815-0.25-1.471-0.724-1.979C176.199,46.148,175.584,45.902,174.819,45.902z"/>
			<path fill="#FFFFFF" d="M181.514,43.914h2.368v1.087c0.41-0.45,0.859-0.782,1.359-1.008c0.494-0.218,1.028-0.334,1.629-0.334
				c0.587,0,1.123,0.15,1.595,0.44c0.476,0.286,0.855,0.717,1.15,1.271c0.373-0.554,0.832-0.984,1.394-1.271
				c0.536-0.29,1.137-0.44,1.789-0.44c0.676,0,1.275,0.167,1.787,0.472c0.501,0.316,0.866,0.727,1.091,1.229
				c0.223,0.506,0.342,1.325,0.342,2.459v5.545h-2.4v-4.787c0-1.08-0.139-1.803-0.395-2.182c-0.269-0.38-0.667-0.574-1.199-0.574
				c-0.414,0-0.768,0.123-1.091,0.359c-0.32,0.215-0.566,0.547-0.72,0.953c-0.15,0.409-0.236,1.064-0.236,1.966v4.265h-2.394v-4.576
				c0-0.843-0.058-1.461-0.184-1.84c-0.129-0.369-0.314-0.662-0.56-0.851c-0.263-0.177-0.561-0.276-0.906-0.276
				c-0.399,0-0.761,0.123-1.085,0.359c-0.321,0.23-0.564,0.566-0.724,0.986c-0.162,0.417-0.242,1.086-0.242,2.004v4.193h-2.368
				V43.914z"/>
			<path fill="#FFFFFF" d="M198.039,43.914h2.377v1.087c0.406-0.45,0.857-0.782,1.35-1.008c0.5-0.218,1.04-0.334,1.629-0.334
				c0.583,0,1.125,0.15,1.599,0.44c0.479,0.286,0.854,0.717,1.157,1.271c0.369-0.554,0.82-0.984,1.383-1.271
				c0.551-0.29,1.146-0.44,1.801-0.44c0.665,0,1.256,0.167,1.766,0.472c0.519,0.316,0.887,0.727,1.105,1.229
				c0.215,0.506,0.331,1.325,0.331,2.459v5.545h-2.394v-4.787c0-1.08-0.131-1.803-0.389-2.182c-0.274-0.38-0.666-0.574-1.205-0.574
				c-0.41,0-0.77,0.123-1.096,0.359c-0.32,0.215-0.555,0.547-0.71,0.953c-0.155,0.409-0.243,1.064-0.243,1.966v4.265h-2.391v-4.576
				c0-0.843-0.057-1.461-0.18-1.84c-0.125-0.369-0.32-0.662-0.568-0.851c-0.249-0.177-0.551-0.276-0.91-0.276
				c-0.391,0-0.75,0.123-1.074,0.359c-0.319,0.23-0.562,0.566-0.724,0.986c-0.157,0.417-0.238,1.086-0.238,2.004v4.193h-2.377
				V43.914z"/>
			<path fill="#FFFFFF" d="M214.587,43.914h2.393v4.549c0,0.892,0.061,1.506,0.191,1.848c0.116,0.348,0.319,0.615,0.586,0.807
				c0.276,0.193,0.604,0.283,1.002,0.283c0.402,0,0.729-0.09,1.008-0.273c0.275-0.198,0.492-0.475,0.623-0.844
				c0.086-0.26,0.146-0.851,0.146-1.737v-4.632h2.372v4.007c0,1.652-0.133,2.776-0.387,3.39c-0.32,0.738-0.798,1.309-1.414,1.712
				c-0.631,0.396-1.408,0.593-2.375,0.593c-1.037,0-1.871-0.235-2.513-0.692c-0.642-0.464-1.093-1.106-1.353-1.939
				c-0.184-0.577-0.279-1.625-0.279-3.132V43.914z"/>
			<path fill="#FFFFFF" d="M225.079,43.914h2.363v0.96c0.547-0.45,1.038-0.771,1.465-0.945c0.438-0.181,0.888-0.27,1.349-0.27
				c0.931,0,1.731,0.327,2.396,0.986c0.545,0.562,0.814,1.384,0.814,2.473v6.245h-2.343v-4.135c0-1.131-0.048-1.885-0.146-2.25
				c-0.106-0.376-0.282-0.656-0.536-0.851c-0.246-0.194-0.566-0.29-0.933-0.29c-0.479,0-0.884,0.168-1.242,0.484
				c-0.336,0.324-0.581,0.758-0.716,1.338c-0.062,0.288-0.107,0.927-0.107,1.913v3.79h-2.363V43.914z"/>
			<path fill="#FFFFFF" d="M236.48,40.002c0.412,0,0.761,0.146,1.059,0.453c0.298,0.297,0.449,0.67,0.449,1.093
				c0,0.431-0.146,0.793-0.442,1.094c-0.295,0.297-0.648,0.446-1.052,0.446c-0.419,0-0.79-0.153-1.082-0.46
				c-0.298-0.308-0.454-0.681-0.454-1.108c0-0.422,0.156-0.779,0.448-1.074C235.704,40.148,236.054,40.002,236.48,40.002z
				 M235.284,43.914h2.371v9.449h-2.371V43.914z"/>
			<path fill="#FFFFFF" d="M248.876,45.82l-1.976,1.086c-0.368-0.39-0.739-0.656-1.106-0.81c-0.358-0.153-0.787-0.226-1.281-0.226
				c-0.879,0-1.596,0.264-2.152,0.797c-0.541,0.535-0.819,1.211-0.819,2.041c0,0.799,0.269,1.455,0.8,1.963
				c0.52,0.51,1.21,0.77,2.072,0.77c1.072,0,1.893-0.365,2.487-1.093l1.864,1.28c-1.006,1.327-2.443,1.986-4.292,1.986
				c-1.669,0-2.97-0.494-3.915-1.484c-0.938-0.983-1.412-2.128-1.412-3.453c0-0.92,0.234-1.762,0.688-2.537
				c0.463-0.771,1.09-1.375,1.92-1.815c0.82-0.441,1.738-0.666,2.76-0.666c0.935,0,1.789,0.194,2.529,0.563
				C247.787,44.602,248.394,45.127,248.876,45.82z"/>
			<path fill="#FFFFFF" d="M257.774,43.914h2.377v9.449h-2.377v-0.996c-0.461,0.447-0.922,0.764-1.393,0.951
				c-0.461,0.199-0.97,0.297-1.512,0.297c-1.22,0-2.279-0.474-3.175-1.42c-0.887-0.945-1.335-2.127-1.335-3.537
				c0-1.465,0.433-2.652,1.301-3.59c0.848-0.938,1.917-1.409,3.137-1.409c0.564,0,1.098,0.112,1.604,0.321
				c0.502,0.215,0.959,0.545,1.373,0.963V43.914z M255.292,45.848c-0.73,0-1.349,0.263-1.83,0.782
				c-0.492,0.519-0.73,1.188-0.73,1.994c0,0.823,0.238,1.495,0.74,2.024c0.502,0.526,1.106,0.793,1.826,0.793
				c0.738,0,1.373-0.264,1.854-0.783c0.502-0.514,0.739-1.201,0.739-2.041c0-0.82-0.237-1.484-0.739-2.002
				C256.671,46.107,256.036,45.848,255.292,45.848z"/>
			<path fill="#FFFFFF" d="M262.636,40.422h2.373v3.492h1.415v2.029h-1.415v7.42h-2.373v-7.42h-1.219v-2.029h1.219V40.422z"/>
			<path fill="#FFFFFF" d="M268.4,40.002c0.411,0,0.765,0.146,1.072,0.453c0.29,0.297,0.435,0.67,0.435,1.093
				c0,0.431-0.141,0.793-0.435,1.094c-0.286,0.297-0.647,0.446-1.062,0.446c-0.42,0-0.771-0.153-1.078-0.46
				c-0.291-0.308-0.445-0.681-0.445-1.108c0-0.422,0.154-0.779,0.439-1.074C267.628,40.148,267.984,40.002,268.4,40.002z
				 M267.214,43.914h2.371v9.449h-2.371V43.914z"/>
			<path fill="#FFFFFF" d="M275.978,43.659c0.896,0,1.736,0.225,2.52,0.676c0.795,0.448,1.398,1.056,1.841,1.813
				c0.435,0.768,0.652,1.598,0.652,2.481c0,0.899-0.218,1.725-0.662,2.507c-0.444,0.775-1.036,1.383-1.813,1.819
				c-0.77,0.445-1.602,0.659-2.526,0.659c-1.358,0-2.516-0.48-3.473-1.45c-0.97-0.968-1.441-2.132-1.441-3.517
				c0-1.479,0.544-2.711,1.632-3.697C273.649,44.096,274.745,43.659,275.978,43.659z M276.026,45.902
				c-0.745,0-1.359,0.256-1.846,0.766c-0.488,0.516-0.737,1.171-0.737,1.973c0,0.816,0.249,1.492,0.726,1.994
				c0.492,0.513,1.097,0.766,1.843,0.766c0.738,0,1.366-0.257,1.854-0.771c0.492-0.517,0.738-1.182,0.738-1.988
				c0-0.815-0.246-1.471-0.729-1.979C277.394,46.148,276.769,45.902,276.026,45.902z"/>
			<path fill="#FFFFFF" d="M282.724,43.914h2.381v0.96c0.537-0.45,1.021-0.771,1.461-0.945c0.438-0.181,0.881-0.27,1.342-0.27
				c0.94,0,1.732,0.327,2.393,0.986c0.549,0.562,0.822,1.384,0.822,2.473v6.245h-2.346v-4.135c0-1.131-0.051-1.885-0.152-2.25
				c-0.103-0.376-0.281-0.656-0.532-0.851s-0.556-0.29-0.933-0.29c-0.48,0-0.892,0.168-1.239,0.484
				c-0.344,0.324-0.583,0.758-0.718,1.338c-0.07,0.288-0.098,0.927-0.098,1.913v3.79h-2.381V43.914z"/>
		</g>
	</g>
</g>
</svg>
